<svg width="36" height="36" viewBox="0 0 36 36" fill="none" xmlns="http://www.w3.org/2000/svg">
<path fill-rule="evenodd" clip-rule="evenodd" d="M18.8706 2.5C18.8706 1.39543 19.766 0.5 20.8706 0.5H25.0161C26.1207 0.5 27.0161 1.39543 27.0161 2.5V7.52338C27.4576 8.06956 27.9037 8.60481 28.2783 9.04857H33.2552C34.3598 9.04857 35.2552 9.944 35.2552 11.0486V15.5C35.2552 16.6046 34.3598 17.5 33.2552 17.5H29.1097C28.0052 17.5 27.1097 16.6046 27.1097 15.5V10.4929L25.8182 8.95143H20.8706C19.766 8.95143 18.8706 8.056 18.8706 6.95143V2.5Z" fill="#B22226"/>
<path fill-rule="evenodd" clip-rule="evenodd" d="M16.8846 2.5C16.8846 1.39543 15.9892 0.5 14.8846 0.5H10.6923C9.58777 0.5 8.69234 1.39543 8.69234 2.5V7.35598C8.28023 7.8508 7.86419 8.33643 7.50528 8.75H2.50003C1.39546 8.75 0.500029 9.64543 0.500029 10.75V15C0.500029 16.1046 1.39546 17 2.50003 17H6.69234C7.79691 17 8.69234 16.1046 8.69234 15V10.1457L9.89708 8.75H14.8846C15.9892 8.75 16.8846 7.85457 16.8846 6.75V2.5Z" fill="#EA7722"/>
<path fill-rule="evenodd" clip-rule="evenodd" d="M16.8846 33.5C16.8846 34.6046 15.9892 35.5 14.8846 35.5H10.6923C9.58777 35.5 8.69234 34.6046 8.69234 33.5V28.644C8.28023 28.1492 7.86419 27.6636 7.50528 27.25H2.50003C1.39546 27.25 0.500029 26.3546 0.500029 25.25V21C0.500029 19.8954 1.39546 19 2.50003 19H6.69234C7.79691 19 8.69234 19.8954 8.69234 21V25.8543L9.89708 27.25H14.8846C15.9892 27.25 16.8846 28.1454 16.8846 29.25V33.5Z" fill="#F8C410"/>
<path fill-rule="evenodd" clip-rule="evenodd" d="M34.7588 33.5C34.7588 34.6046 33.8634 35.5 32.7588 35.5H28.5665C27.4619 35.5 26.5665 34.6046 26.5665 33.5V28.644C26.1544 28.1492 25.7383 27.6636 25.3794 27.25H20.3742C19.2696 27.25 18.3742 26.3546 18.3742 25.25V21C18.3742 19.8954 19.2696 19 20.3742 19H24.5665C25.6711 19 26.5665 19.8954 26.5665 21V25.8543L27.7712 27.25H32.7588C33.8634 27.25 34.7588 28.1454 34.7588 29.25V33.5Z" fill="#00AEC2"/>
</svg>
