<svg width="36" height="36" viewBox="0 0 36 36" fill="none" xmlns="http://www.w3.org/2000/svg">
<path d="M33.5854 9.43435C31.9758 6.68585 29.7925 4.50985 27.0348 2.90588C24.2768 1.30182 21.2658 0.5 17.9998 0.5C14.7342 0.5 11.7223 1.30207 8.96482 2.90588C6.20695 4.50977 4.0237 6.68585 2.41409 9.43435C0.804723 12.1828 0 15.1841 0 18.4382C0 22.3471 1.14433 25.862 3.43356 28.984C5.72254 32.1062 8.67956 34.2667 12.3044 35.4656C12.7263 35.5436 13.0387 35.4888 13.2418 35.3023C13.4449 35.1156 13.5464 34.8818 13.5464 34.6018C13.5464 34.5551 13.5424 34.1349 13.5346 33.3406C13.5265 32.5463 13.5228 31.8533 13.5228 31.2621L12.9837 31.355C12.64 31.4178 12.2064 31.4444 11.6829 31.4368C11.1597 31.4296 10.6165 31.3749 10.0541 31.2733C9.49143 31.1726 8.96811 30.939 8.4837 30.5731C7.99953 30.2072 7.65583 29.7282 7.45266 29.1368L7.21829 28.5993C7.06207 28.2415 6.81613 27.844 6.48014 27.4083C6.14415 26.9721 5.80438 26.6765 5.46067 26.5208L5.29658 26.4037C5.18723 26.3259 5.08577 26.2321 4.99194 26.1232C4.8982 26.0143 4.82801 25.9053 4.78114 25.7962C4.73418 25.687 4.77309 25.5974 4.89828 25.5271C5.02346 25.4568 5.2497 25.4227 5.57798 25.4227L6.04654 25.4925C6.35906 25.5549 6.74562 25.7414 7.20671 26.053C7.66756 26.3644 8.04641 26.7692 8.34333 27.2672C8.70288 27.9058 9.13606 28.3924 9.64411 28.7273C10.1518 29.0621 10.6636 29.2293 11.1791 29.2293C11.6946 29.2293 12.1399 29.1903 12.515 29.1129C12.8898 29.035 13.2414 28.9179 13.5696 28.7623C13.7103 27.7186 14.0931 26.9167 14.7179 26.3563C13.8274 26.263 13.0268 26.1225 12.3156 25.9358C11.6049 25.7487 10.8704 25.4452 10.1128 25.0244C9.35467 24.6041 8.72578 24.0823 8.22594 23.4597C7.72601 22.8368 7.31573 22.019 6.99566 21.0071C6.67543 19.9948 6.51528 18.827 6.51528 17.5035C6.51528 15.619 7.13259 14.0153 8.36697 12.6916C7.78873 11.2748 7.84332 9.68657 8.5309 7.92699C8.98403 7.78669 9.65602 7.89198 10.5465 8.24221C11.4372 8.5926 12.0893 8.89277 12.5035 9.14163C12.9178 9.39042 13.2496 9.60124 13.4997 9.77223C14.9531 9.36751 16.4529 9.16511 17.9997 9.16511C19.5464 9.16511 21.0466 9.36751 22.5001 9.77223L23.3906 9.21191C23.9997 8.83803 24.7189 8.49541 25.5465 8.18396C26.3746 7.87267 27.0078 7.78693 27.4455 7.92724C28.1484 9.6869 28.211 11.2751 27.6326 12.6919C28.8669 14.0156 29.4845 15.6196 29.4845 17.5037C29.4845 18.8272 29.3237 19.9987 29.004 21.0188C28.6839 22.039 28.27 22.856 27.7624 23.4714C27.2542 24.0867 26.6213 24.6045 25.8636 25.0246C25.1057 25.4451 24.371 25.7487 23.6603 25.9357C22.9493 26.1227 22.1486 26.2632 21.2581 26.3567C22.0703 27.0571 22.4765 28.1628 22.4765 29.6732V34.6012C22.4765 34.8811 22.5742 35.1149 22.7697 35.3017C22.965 35.4881 23.2734 35.543 23.6954 35.4649C27.3207 34.2661 30.2777 32.1056 32.5666 28.9834C34.8553 25.8614 36 22.3464 36 18.4375C35.9992 15.1838 35.194 12.1828 33.5854 9.43435Z" fill="#23282D"/>
</svg>
