<svg width="195" height="35" viewBox="0 0 195 35" fill="none" xmlns="http://www.w3.org/2000/svg">
<path fill-rule="evenodd" clip-rule="evenodd" d="M18.3706 2C18.3706 0.895431 19.266 0 20.3706 0H24.5161C25.6207 0 26.5161 0.89543 26.5161 2V7.02338C26.9576 7.56956 27.4037 8.10481 27.7783 8.54857H32.7552C33.8598 8.54857 34.7552 9.444 34.7552 10.5486V15C34.7552 16.1046 33.8598 17 32.7552 17H28.6097C27.5052 17 26.6097 16.1046 26.6097 15V9.99291L25.3182 8.45143H20.3706C19.266 8.45143 18.3706 7.556 18.3706 6.45143V2Z" fill="#B22226"/>
<path fill-rule="evenodd" clip-rule="evenodd" d="M16.3846 2C16.3846 0.895431 15.4892 0 14.3846 0H10.1923C9.08777 0 8.19234 0.895431 8.19234 2V6.85598C7.78023 7.3508 7.36419 7.83643 7.00528 8.25H2.00003C0.895461 8.25 2.86102e-05 9.14543 2.86102e-05 10.25V14.5C2.86102e-05 15.6046 0.895459 16.5 2.00003 16.5H6.19234C7.29691 16.5 8.19234 15.6046 8.19234 14.5V9.64566L9.39708 8.25H14.3846C15.4892 8.25 16.3846 7.35457 16.3846 6.25V2Z" fill="#EA7722"/>
<path fill-rule="evenodd" clip-rule="evenodd" d="M16.3846 33C16.3846 34.1046 15.4892 35 14.3846 35H10.1923C9.08777 35 8.19234 34.1046 8.19234 33V28.144C7.78023 27.6492 7.36419 27.1636 7.00528 26.75H2.00003C0.895461 26.75 2.86102e-05 25.8546 2.86102e-05 24.75V20.5C2.86102e-05 19.3954 0.895459 18.5 2.00003 18.5H6.19234C7.29691 18.5 8.19234 19.3954 8.19234 20.5V25.3543L9.39708 26.75H14.3846C15.4892 26.75 16.3846 27.6454 16.3846 28.75V33Z" fill="#F8C410"/>
<path fill-rule="evenodd" clip-rule="evenodd" d="M34.2588 33C34.2588 34.1046 33.3634 35 32.2588 35H28.0665C26.9619 35 26.0665 34.1046 26.0665 33V28.144C25.6544 27.6492 25.2383 27.1636 24.8794 26.75H19.8742C18.7696 26.75 17.8742 25.8546 17.8742 24.75V20.5C17.8742 19.3954 18.7696 18.5 19.8742 18.5H24.0665C25.1711 18.5 26.0665 19.3954 26.0665 20.5V25.3543L27.2712 26.75H32.2588C33.3634 26.75 34.2588 27.6454 34.2588 28.75V33Z" fill="#DFE2E5"/>
<path fill-rule="evenodd" clip-rule="evenodd" d="M59.1019 7.44531C52.1143 7.44531 48.6205 11.0078 48.6205 18.1329C48.6205 25.2187 52.1143 28.7616 59.1019 28.7616L63.6273 34.0686L65.7294 32.4809L62.3427 28.5117C67.0627 27.4532 69.4227 23.9936 69.4227 18.1329C69.4227 11.0078 65.9825 7.44531 59.1019 7.44531ZM59.1019 26.5565C54.012 26.5565 51.4671 23.7192 51.4671 18.0446C51.4671 12.4485 54.012 9.65044 59.1019 9.65044C64.0847 9.65044 66.5761 12.4485 66.5761 18.0446C66.5761 23.7192 64.0847 26.5565 59.1019 26.5565ZM85.4104 13.1787V28.6146H83.5565L83.0893 26.6447C81.2305 27.9579 79.3619 28.6146 77.4837 28.6146C73.9606 28.6146 72.1992 26.6986 72.1992 22.8665V13.1787H74.8998V22.9106C74.8998 25.204 76.0287 26.3506 78.2865 26.3506C79.834 26.3506 81.3083 25.6989 82.7098 24.3954V13.1787H85.4104ZM94.1136 19.206C89.9678 19.206 87.8949 20.7888 87.8949 23.9544C87.8949 27.0612 89.7196 28.6146 93.3691 28.6146C95.1696 28.6146 96.8337 28.105 98.3617 27.0857L99.296 28.6146H100.814V17.9711C100.814 14.7761 98.5369 13.1787 93.9823 13.1787C92.4057 13.1787 90.7901 13.4237 89.1357 13.9137V16.1188C90.7901 15.6288 92.4057 15.3838 93.9823 15.3838C96.7364 15.3838 98.1135 16.2707 98.1135 18.0446V19.5C96.7802 19.304 95.4469 19.206 94.1136 19.206ZM94.1136 21.4111C91.7682 21.4111 90.5955 22.2442 90.5955 23.9103C90.5955 25.5764 91.52 26.4094 93.3691 26.4094C95.2377 26.4094 96.8191 25.9096 98.1135 24.91V21.7052C96.7802 21.5092 95.4469 21.4111 94.1136 21.4111ZM104.029 13.1787V28.6146H106.729V17.3978C108.121 16.0943 109.59 15.4426 111.138 15.4426C113.405 15.4426 114.539 16.5892 114.539 18.8826V28.6146H117.24V18.9267C117.24 15.0947 115.327 13.1787 111.503 13.1787C109.624 13.1787 107.902 13.8353 106.335 15.1486L105.853 13.1787H104.029ZM120.454 10.6795H122.147L122.731 13.1787H126.877V15.3838H123.155V24.2484C123.155 25.6891 123.773 26.4094 125.009 26.4094H126.877V28.6146H124.308C121.739 28.6146 120.454 27.2278 120.454 24.4542V10.6795ZM136.588 28.6146C138.048 28.6146 139.41 28.4676 140.675 28.1736V25.9684C139.41 26.2624 137.999 26.4094 136.442 26.4094C132.89 26.4094 131.113 24.4739 131.113 20.6026C131.113 17.1234 132.89 15.3838 136.442 15.3838C137.999 15.3838 139.41 15.5308 140.675 15.8248V13.6197C139.41 13.3257 138.048 13.1787 136.588 13.1787C131.138 13.1787 128.413 15.6533 128.413 20.6026C128.413 25.9439 131.138 28.6146 136.588 28.6146ZM145.787 7.59232V28.6146H143.087V7.59232H145.787ZM155.717 26.4094C152.651 26.4094 151.118 24.5523 151.118 20.8378C151.118 17.2018 152.651 15.3838 155.717 15.3838C158.782 15.3838 160.315 17.2018 160.315 20.8378C160.315 24.5523 158.782 26.4094 155.717 26.4094ZM148.418 20.8966C148.418 15.7513 150.851 13.1787 155.717 13.1787C160.583 13.1787 163.016 15.7513 163.016 20.8966C163.016 26.0321 160.583 28.5999 155.717 28.5999C150.87 28.5999 148.437 26.0321 148.418 20.8966ZM176.858 28.6146H178.712V13.1787H176.011V24.3954C174.609 25.6989 173.135 26.3506 171.588 26.3506C169.33 26.3506 168.201 25.204 168.201 22.9106V13.1787H165.5V22.8665C165.5 26.6986 167.262 28.6146 170.785 28.6146C172.663 28.6146 174.532 27.9579 176.39 26.6447L176.858 28.6146ZM192.218 16.3246C191.128 15.7954 189.882 15.5308 188.48 15.5308C185.395 15.5308 183.853 17.1822 183.853 20.485C183.853 24.3954 185.395 26.3506 188.48 26.3506C189.882 26.3506 191.128 26.1595 192.218 25.7773V16.3246ZM188.042 28.6146C190.767 28.6146 193.059 28.3059 194.918 27.6884V7.59232H192.218V13.9137C191.04 13.4237 189.789 13.1787 188.466 13.1787C183.619 13.1787 181.196 15.6484 181.196 20.5879C181.196 25.939 183.478 28.6146 188.042 28.6146Z" fill="#DFE2E5"/>
</svg>
