<svg width="35" height="35" viewBox="0 0 35 35" fill="none" xmlns="http://www.w3.org/2000/svg">
<path fill-rule="evenodd" clip-rule="evenodd" d="M18.3706 2C18.3706 0.895431 19.266 0 20.3706 0H24.5161C25.6207 0 26.5161 0.89543 26.5161 2V7.02338C26.9576 7.56956 27.4037 8.10481 27.7783 8.54857H32.7552C33.8598 8.54857 34.7552 9.444 34.7552 10.5486V15C34.7552 16.1046 33.8598 17 32.7552 17H28.6097C27.5052 17 26.6097 16.1046 26.6097 15V9.99291L25.3182 8.45143H20.3706C19.266 8.45143 18.3706 7.556 18.3706 6.45143V2Z" fill="#B22226"/>
<path fill-rule="evenodd" clip-rule="evenodd" d="M16.3846 2C16.3846 0.895431 15.4892 0 14.3846 0H10.1923C9.08777 0 8.19234 0.895431 8.19234 2V6.85598C7.78023 7.3508 7.36419 7.83643 7.00528 8.25H2.00003C0.895461 8.25 2.86102e-05 9.14543 2.86102e-05 10.25V14.5C2.86102e-05 15.6046 0.895459 16.5 2.00003 16.5H6.19234C7.29691 16.5 8.19234 15.6046 8.19234 14.5V9.64566L9.39708 8.25H14.3846C15.4892 8.25 16.3846 7.35457 16.3846 6.25V2Z" fill="#EA7722"/>
<path fill-rule="evenodd" clip-rule="evenodd" d="M16.3846 33C16.3846 34.1046 15.4892 35 14.3846 35H10.1923C9.08777 35 8.19234 34.1046 8.19234 33V28.144C7.78023 27.6492 7.36419 27.1636 7.00528 26.75H2.00003C0.895461 26.75 2.86102e-05 25.8546 2.86102e-05 24.75V20.5C2.86102e-05 19.3954 0.895459 18.5 2.00003 18.5H6.19234C7.29691 18.5 8.19234 19.3954 8.19234 20.5V25.3543L9.39708 26.75H14.3846C15.4892 26.75 16.3846 27.6454 16.3846 28.75V33Z" fill="#F8C410"/>
<path fill-rule="evenodd" clip-rule="evenodd" d="M34.2588 33C34.2588 34.1046 33.3634 35 32.2588 35H28.0665C26.9619 35 26.0665 34.1046 26.0665 33V28.144C25.6544 27.6492 25.2383 27.1636 24.8794 26.75H19.8742C18.7696 26.75 17.8742 25.8546 17.8742 24.75V20.5C17.8742 19.3954 18.7696 18.5 19.8742 18.5H24.0665C25.1711 18.5 26.0665 19.3954 26.0665 20.5V25.3543L27.2712 26.75H32.2588C33.3634 26.75 34.2588 27.6454 34.2588 28.75V33Z" fill="#DFE2E5"/>
</svg>
